<svg xmlns="http://www.w3.org/2000/svg" viewBox="0 0 250 250" class="swill-boilerplate-logo--mono"><style>.swill-boilerplate-logo__circle{fill:#a3a3a2}.swill-boilerplate-logo__foam-shadow,.swill-boilerplate-logo__mug-shadow,.swill-boilerplate-logo__straw-shadow{fill:#989897}.swill-boilerplate-logo__arrows{fill:#aaaaa9}.swill-boilerplate-logo__mug{fill:#d0d0d0}.swill-boilerplate-logo__inner-straw,.swill-boilerplate-logo__straw{fill:#757474}.swill-boilerplate-logo__inner-straw{opacity:.1}.swill-boilerplate-logo__beer{fill:#e3e3e3}.swill-boilerplate-logo__beer-head{fill:#f5f5f5}.swill-boilerplate-logo__foam,.swill-boilerplate-logo__text--swill{fill:#fff}.swill-boilerplate-logo__text--boilerplate{fill:#f1f1f1}.swill-boilerplate-logo__text--boilerplate-shadow,.swill-boilerplate-logo__text--swill-shadow{opacity:.65;fill:#969695}</style><circle class="swill-boilerplate-logo__circle" cx="125" cy="125" r="124"/><path class="swill-boilerplate-logo__mug-shadow" d="M89.322 154.695l99.04 76.89C224.666 209.955 249 170.327 249 125c0-.075-.005-.148-.006-.222L157.9 49.84 89.32 154.695z"/><g class="swill-boilerplate-logo__arrows"><path d="M126.861 43.038h-7.059l3.558-13.224-3.558-13.336h7.059l3.557 13.224zm-3.501 163.924h7.058l-3.557 13.224 3.557 13.336h-7.058l-3.558-13.224zm-9.342-163.189l-6.972 1.104 1.445-13.617-5.6-12.616 6.972-1.104 5.582 12.505zm22.185 162.454l6.972-1.104-1.445 13.617 5.6 12.616-6.972 1.104-5.583-12.505z"/><path d="M114.018 43.773l-6.972 1.104 1.445-13.617-5.6-12.616 6.972-1.104 5.582 12.505zm22.185 162.454l6.972-1.104-1.445 13.617 5.6 12.616-6.972 1.104-5.583-12.505zM101.448 46.508l-6.714 2.182-.703-13.676-7.504-11.585 6.713-2.181 7.47 11.478zm47.325 156.984l6.713-2.182.704 13.676 7.504 11.585-6.713 2.181-7.47-11.478zM89.46 51.177l-6.289 3.204-2.834-13.398-9.224-10.267 6.289-3.205 9.174 10.168zm71.301 147.646l6.289-3.204 2.834 13.398 9.224 10.267-6.289 3.205-9.174-10.168zM78.351 57.662l-5.711 4.149-4.895-12.789-10.717-8.698 5.711-4.149 10.651 8.607zm93.519 134.676l5.711-4.149 4.895 12.789 10.717 8.698-5.711 4.149-10.651-8.607zM68.393 65.806l-4.992 4.992-6.835-11.867-11.946-6.914 4.992-4.992 11.866 6.836zm113.435 118.388l4.992-4.992 6.835 11.867 11.946 6.914-4.992 4.992-11.866-6.836zM59.831 75.408l-4.149 5.71-8.608-10.651-12.88-4.96 4.149-5.711 12.79 4.895zm130.559 99.184l4.149-5.71 8.608 10.651 12.88 4.96-4.149 5.711-12.79-4.895zM52.876 86.23l-3.204 6.289-10.168-9.173-13.497-2.884 3.204-6.29 13.398 2.834zm144.468 77.54l3.205-6.289 10.168 9.173 13.497 2.884-3.205 6.29-13.397-2.834zM47.701 98.007l-2.181 6.714-11.478-7.47-13.782-.738 2.181-6.713 13.676.703zm154.819 53.986l2.181-6.714 11.478 7.47 13.782.738-2.181 6.713-13.676-.703zM44.431 110.449l-1.104 6.972-12.505-5.582-13.728 1.427 1.104-6.972 13.618-1.445zm161.358 29.102l1.105-6.972 12.505 5.582 13.728-1.427-1.105 6.972-13.617 1.445zM43.148 123.249v7.059l-13.224-3.557-13.336 3.557v-7.059l13.224-3.557zm163.924 3.502v-7.059l13.224 3.557 13.337-3.557v7.059l-13.225 3.557zm-163.188 9.342l1.104 6.971-13.618-1.444-12.615 5.599-1.104-6.972 12.504-5.582zm162.453-22.186l-1.104-6.971 13.618 1.444 12.615-5.599 1.104 6.972-12.504 5.582zM46.619 148.663l2.181 6.713-13.676.703-11.584 7.504-2.181-6.713 11.477-7.47zm156.983-47.326l-2.181-6.713 13.676-.703 11.584-7.504 2.181 6.713-11.477 7.47zM51.287 160.65l3.205 6.289-13.398 2.835-10.268 9.224-3.204-6.29 10.167-9.173zm147.647-71.3l-3.205-6.289 13.398-2.835 10.268-9.224 3.204 6.29-10.167 9.173zM57.773 171.76l4.149 5.71-12.79 4.895-8.698 10.717-4.149-5.711 8.608-10.651zm134.675-93.52l-4.149-5.71 12.79-4.895 8.698-10.717 4.149 5.711-8.608 10.651zM65.917 181.718l4.991 4.991-11.866 6.836-6.915 11.945-4.991-4.991 6.835-11.866zM184.304 68.282l-4.991-4.991 11.866-6.836 6.915-11.945 4.991 4.991-6.835 11.866zM75.518 190.28l5.711 4.149-10.651 8.607-4.961 12.88-5.711-4.149 4.895-12.789zm99.185-130.56l-5.711-4.149 10.651-8.607 4.961-12.88 5.711 4.149-4.895 12.789zM86.341 197.234l6.289 3.205-9.173 10.167-2.885 13.498-6.289-3.205 2.833-13.397zM163.88 52.766l-6.289-3.205 9.173-10.167 2.885-13.498 6.289 3.205-2.834 13.397zM98.118 202.41l6.713 2.181-7.47 11.477-.737 13.783-6.714-2.181.703-13.676zm53.985-154.82l-6.713-2.181 7.469-11.477.738-13.783 6.714 2.181-.704 13.676zM110.56 205.679l6.971 1.104-5.582 12.505 1.428 13.729-6.972-1.105-1.445-13.618zm29.101-161.358l-6.972-1.104 5.583-12.505-1.428-13.729 6.972 1.105 1.445 13.618z"/></g><g class="swill-boilerplate-logo__beer-mug"><path class="swill-boilerplate-logo__foam-shadow" d="M161.088 56.707c3.362 0 6.73-1.93 6.73-6.034 0-4.5-4.624-7.695-12.197-5.972-7.026-4.684-56.943 12.007-54.172 12.007h59.64z"/><path class="swill-boilerplate-logo__straw-shadow" d="M156.217 48.068l8.422-16.751 19.79-16.021-2.633-3.236-20.383 15.911-10.146 18.733"/><path class="swill-boilerplate-logo__mug" d="M167.818 73.442h-4.94l-.163-16.368c0-4.944-2.15-4.868-10.72-4.868h-51.768c-8.91 0-9.203 0-9.4 4.868l-3.824 90.315c0 7.09 4 10.72 10.722 10.72h56.12c7.64 0 10.115-4.446 10.115-10.336l-.3-20.476c6.942-.306 18.58-3.13 18.58-15.22V88.584c0-11.562-2.714-15.143-14.422-15.143zm6.172 37.567c0 5.404-4.35 7.24-10.455 7.533L163 82.073h3.663c1.472 0 2.622.132 3.377.313 2.932.704 3.57 2.074 3.784 4.82.12 1.543.166 4.25.166 6.19v17.613z"/><path class="swill-boilerplate-logo__straw" d="M98.551 141.745l62.433-115.796 20.383-15.911 2.257 3.497-19.414 15.76-62.212 114.378z"/><path class="swill-boilerplate-logo__beer" d="M148.193 148.612h-45.188c-6.6 0-7.787-3.245-7.787-8.432l2.953-85.8h57.58v85.8c0 6.413-2.222 8.432-7.557 8.432z"/><path class="swill-boilerplate-logo__beer-head" d="M155.75 71.823V54.381H98.171l-.603 17.442z"/><path class="swill-boilerplate-logo__inner-straw" d="M98.551 141.745l62.433-115.796 3.226 3.346-62.212 114.378z"/><path class="swill-boilerplate-logo__foam" d="M159.212 54.83c3.362 0 6.73-1.93 6.73-6.033 0-4.5-3.984-9.575-11.556-7.85-2.166-6.17-8.386-8.85-16.15-7.194-6.245-6.145-20.093-4.88-25.307 2.98-7.03-2.77-15.137-.188-17.713 6.305-4.527-1.036-8.2 2.644-8.2 6.313 0 4.088 2.714 5.482 5.485 5.482h66.71z"/></g><g class="swill-boilerplate-logo__text"><path d="M102.6 221.408c0 1.05-.134 2.025-.403 2.923-.272.9-.672 1.685-1.205 2.357a5.603 5.603 0 0 1-1.97 1.575c-.78.38-1.674.57-2.682.57-.7 0-1.39-.12-2.07-.352-.68-.232-1.375-.53-2.09-.896l2.78-14.386 3.46-.437-.7 3.57c-.103.496-.245 1.01-.427 1.542-.182.533-.4 1.107-.647 1.72.79-1.3 1.775-1.95 2.957-1.95.54 0 1.002.115 1.39.34.386.227.697.52.93.876.234.36.405.763.515 1.217.107.45.163.896.163 1.333zm-4.05-1.183c-.218 0-.448.154-.69.46-.24.307-.474.71-.7 1.204-.227.496-.437 1.047-.635 1.652s-.36 1.202-.493 1.784l-.218.898c.19.06.408.087.657.087.512 0 .935-.185 1.27-.557.337-.372.604-.82.8-1.346a7.802 7.802 0 0 0 .418-1.642c.08-.57.12-1.044.12-1.424 0-.306-.036-.568-.11-.79-.074-.215-.213-.325-.418-.325zm11.19-2.648c.743 0 1.367.112 1.87.338.505.228.905.522 1.205.888.298.364.514.78.645 1.247.13.467.197.94.197 1.423a9.93 9.93 0 0 1-.406 2.88 7.234 7.234 0 0 1-1.19 2.364 5.77 5.77 0 0 1-1.94 1.61c-.766.392-1.644.59-2.637.59-.744 0-1.364-.11-1.862-.33a3.24 3.24 0 0 1-1.202-.874 3.304 3.304 0 0 1-.657-1.238 5.089 5.089 0 0 1-.196-1.412c0-1.008.135-1.962.404-2.868.27-.905.668-1.7 1.194-2.388a5.787 5.787 0 0 1 1.938-1.63c.767-.4 1.646-.6 2.64-.6zm-.46 2.453c-.352 0-.665.17-.942.514-.28.342-.51.772-.69 1.29a9.537 9.537 0 0 0-.417 1.688c-.094.605-.14 1.17-.14 1.697 0 .436.075.755.23.95.153.197.36.296.623.296.35 0 .66-.17.93-.514s.497-.772.68-1.292a9.62 9.62 0 0 0 .416-1.674c.094-.598.14-1.152.14-1.664 0-.452-.075-.78-.23-.985a.71.71 0 0 0-.6-.307zm7.882 8.757c-.774 0-1.372-.194-1.796-.58-.423-.386-.636-.9-.636-1.544a2.908 2.908 0 0 1 .089-.678l1.618-8.08h3.35l-1.423 7.247a5.7 5.7 0 0 1-.065.372.81.81 0 0 0-.023.198c0 .102.015.194.044.273.03.08.11.12.242.12.074 0 .165-.01.273-.033.11-.02.213-.047.308-.076.095-.03.182-.06.262-.087a.795.795 0 0 1 .142-.044v2.365a4.17 4.17 0 0 1-.744.286 5.31 5.31 0 0 1-1.641.261zm1.598-16.006c.628 0 1.087.16 1.38.472.292.315.438.742.438 1.28 0 .527-.186.982-.56 1.37-.372.386-.87.58-1.5.58-.627 0-1.087-.16-1.38-.482-.29-.32-.436-.736-.436-1.25 0-.523.182-.984.547-1.377.363-.394.868-.592 1.51-.592zm7.443 15.415c-.264.1-.54.19-.833.262a6.762 6.762 0 0 1-1.839.262c-.817 0-1.426-.188-1.827-.57-.402-.377-.602-.89-.602-1.53a2.81 2.81 0 0 1 .088-.68l2.475-12.743 3.414-.437-2.365 12.392a5.7 5.7 0 0 1-.065.372.81.81 0 0 0-.023.198c0 .102.02.194.055.273.035.08.126.12.272.12a3.33 3.33 0 0 0 .723-.12c.13-.036.245-.068.34-.1a.892.892 0 0 1 .186-.043v2.344zm1.183-3.131c0-1.008.135-1.962.404-2.868s.668-1.7 1.194-2.388a5.776 5.776 0 0 1 1.938-1.63c.767-.403 1.645-.603 2.638-.603 1.226 0 2.11.247 2.65.744.538.496.81 1.147.81 1.948 0 .613-.15 1.183-.45 1.708-.3.526-.724.985-1.27 1.38-.548.395-1.2.716-1.95.964-.752.25-1.57.416-2.462.503 0 .06-.004.135-.01.23-.01.095-.012.178-.012.252 0 .364.103.628.308.788.203.16.46.24.765.24.204 0 .485-.042.842-.13.36-.087.72-.19 1.084-.307.423-.13.87-.285 1.336-.46l.744 2.235c-.495.25-1.006.46-1.532.635-.454.16-.953.304-1.5.427a7.327 7.327 0 0 1-1.608.186c-.744 0-1.365-.108-1.862-.328-.495-.218-.898-.51-1.203-.875a3.302 3.302 0 0 1-.656-1.238 5.017 5.017 0 0 1-.198-1.412zm5.648-4.948c-.38 0-.73.215-1.05.645-.322.43-.57.99-.745 1.676.787-.102 1.39-.332 1.806-.69.416-.358.624-.705.624-1.04 0-.394-.213-.59-.636-.59zm12.194 1.183c-.16-.162-.336-.31-.526-.44s-.43-.198-.72-.198c-.206 0-.4.078-.582.23a2.5 2.5 0 0 0-.503.603 4.717 4.717 0 0 0-.406.843c-.115.313-.21.63-.284.95l-1.05 5.344h-3.395l1.12-5.605c.07-.364.126-.704.162-1.017.036-.315.055-.603.055-.865 0-.685-.09-1.234-.273-1.642a9.408 9.408 0 0 0-.404-.833l2.758-1.072c.205.234.357.507.46.822.102.313.153.645.153.996 0 .16-.01.357-.03.59-.024.234-.064.585-.123 1.05.364-1.24.81-2.12 1.336-2.637.526-.52 1.175-.78 1.95-.78.422 0 .81.064 1.17.187.357.125.668.332.93.624l-1.795 2.85zm2.584 1.728c.074-.364.13-.704.165-1.017.036-.314.055-.602.055-.864 0-.685-.09-1.234-.273-1.642-.185-.408-.32-.687-.407-.833l2.76-1.07c.203.233.357.506.46.82.102.314.153.646.153.997 0 .16-.008.353-.023.58-.015.227-.06.557-.13.996l.284-.613c.467-1.02.997-1.733 1.587-2.135.592-.4 1.23-.602 1.917-.602.54 0 1.003.114 1.39.34.387.226.696.518.93.875.234.36.406.763.516 1.217.108.452.163.898.163 1.334 0 1.05-.136 2.024-.405 2.922-.272.898-.672 1.684-1.205 2.356a5.63 5.63 0 0 1-1.97 1.575c-.782.38-1.683.57-2.705.57-.19 0-.368-.01-.535-.022a5.137 5.137 0 0 1-.493-.066l-.83 4.314-3.417.437 2.012-10.467zm2.736 3.196c.19.06.418.087.68.087a1.62 1.62 0 0 0 1.25-.557c.333-.372.6-.82.798-1.346a7.922 7.922 0 0 0 .416-1.642c.08-.57.12-1.044.12-1.424a2.71 2.71 0 0 0-.1-.79c-.064-.217-.2-.327-.403-.327-.22 0-.45.154-.69.46-.24.307-.478.71-.712 1.204a13.902 13.902 0 0 0-.657 1.697c-.204.636-.38 1.274-.525 1.917l-.177.724zm12.876 1.972c-.264.1-.54.19-.833.262a6.667 6.667 0 0 1-1.838.262c-.818 0-1.427-.188-1.828-.57-.402-.377-.602-.89-.602-1.53 0-.103.008-.212.02-.33a3.08 3.08 0 0 1 .067-.35l2.474-12.743 3.414-.437-2.365 12.392a5.7 5.7 0 0 1-.065.372.81.81 0 0 0-.023.198c0 .102.02.194.055.273.036.08.127.12.273.12a3.261 3.261 0 0 0 .724-.12c.13-.036.245-.068.34-.1a.892.892 0 0 1 .186-.043v2.344zm4.181.634c-.554 0-1.02-.114-1.4-.34a2.79 2.79 0 0 1-.922-.875 3.907 3.907 0 0 1-.514-1.205 5.584 5.584 0 0 1-.164-1.346c0-1.05.135-2.025.404-2.923.27-.897.672-1.68 1.205-2.352a5.568 5.568 0 0 1 1.97-1.577c.78-.38 1.682-.568 2.705-.568.48 0 .915.04 1.302.12.387.08.784.215 1.194.405l1.752.11-.92 4.773c-.073.35-.128.68-.164.994a7.252 7.252 0 0 0-.055.866c0 .613.07 1.135.217 1.566.146.43.364.873.657 1.325l-2.758 1.096a3.39 3.39 0 0 1-.56-.91 3.01 3.01 0 0 1-.23-1.193c0-.175.004-.372.01-.59.01-.22.026-.475.056-.767l-.284.613c-.467 1.007-.997 1.722-1.587 2.146a3.213 3.213 0 0 1-1.915.634zm1.052-2.583c.218 0 .452-.16.7-.482.248-.32.486-.73.712-1.226.225-.496.434-1.04.624-1.63.19-.593.35-1.15.482-1.677l.218-.985c-.16-.06-.38-.087-.657-.087-.51 0-.93.187-1.258.56-.33.37-.593.82-.79 1.345a7.566 7.566 0 0 0-.417 1.644c-.08.568-.12 1.043-.12 1.42 0 .308.032.57.1.79.064.217.2.327.404.327zm7.795-8.341h2.145l.898-2.52 3.044-.68-.637 3.2h2.234l-.395 2.538h-2.32l-.92 4.64c-.03.075-.047.185-.055.33-.007.145-.01.255-.01.327 0 .147.042.257.13.33.087.073.256.11.505.11.13 0 .294-.018.49-.056.2-.036.392-.076.582-.12.218-.06.438-.123.657-.198v2.475c-.26.103-.56.19-.897.263-.292.074-.628.13-1.008.175-.38.043-.788.066-1.226.066-1.007 0-1.722-.178-2.146-.537-.423-.357-.636-.88-.636-1.564 0-.118.007-.252.023-.406.014-.154.037-.296.065-.427l1.095-5.407h-1.62v-2.537zm7.136 7.159c0-1.008.135-1.962.404-2.868.27-.905.668-1.7 1.194-2.388a5.776 5.776 0 0 1 1.938-1.63c.767-.403 1.645-.603 2.638-.603 1.226 0 2.11.247 2.65.744.54.496.81 1.147.81 1.948 0 .613-.15 1.183-.45 1.708-.3.526-.723.985-1.27 1.38-.547.395-1.198.716-1.95.964-.75.25-1.57.416-2.46.503 0 .06-.005.135-.012.23s-.01.178-.01.252c0 .364.102.628.307.788.203.16.46.24.765.24.205 0 .486-.042.842-.13.36-.087.72-.19 1.084-.307.423-.13.87-.285 1.336-.46l.744 2.235c-.495.25-1.006.46-1.532.635-.454.16-.953.304-1.5.427a7.327 7.327 0 0 1-1.608.186c-.744 0-1.364-.108-1.862-.328-.495-.218-.898-.51-1.203-.875a3.29 3.29 0 0 1-.657-1.238 5.017 5.017 0 0 1-.198-1.412zm5.648-4.948c-.38 0-.73.215-1.05.645-.322.43-.57.99-.745 1.676.79-.102 1.392-.332 1.808-.69.416-.358.625-.705.625-1.04 0-.394-.214-.59-.637-.59z" class="swill-boilerplate-logo__text--boilerplate-shadow"/><path d="M100.116 219.324c0 1.05-.135 2.025-.404 2.923-.272.898-.672 1.683-1.205 2.356a5.603 5.603 0 0 1-1.97 1.575c-.78.38-1.674.57-2.682.57-.7 0-1.39-.12-2.07-.352-.68-.232-1.375-.53-2.09-.896l2.78-14.386 3.46-.437-.7 3.568c-.103.497-.245 1.01-.427 1.543-.182.533-.4 1.107-.647 1.72.79-1.3 1.776-1.95 2.958-1.95.54 0 1.002.115 1.39.34.386.227.697.52.93.876.234.36.405.763.515 1.217.108.45.163.897.163 1.334zm-4.05-1.182c-.218 0-.448.154-.69.46-.24.307-.474.71-.7 1.204a15.874 15.874 0 0 0-.635 1.653c-.197.604-.36 1.2-.492 1.783l-.218.898c.19.06.408.088.657.088.51 0 .934-.186 1.27-.558.336-.372.603-.82.8-1.346a7.861 7.861 0 0 0 .417-1.642c.08-.57.12-1.044.12-1.424 0-.307-.037-.57-.11-.79-.075-.216-.213-.326-.418-.326zm11.188-2.648c.744 0 1.368.112 1.87.338.506.228.906.522 1.206.888.298.364.514.78.645 1.247.13.467.198.94.198 1.423a9.93 9.93 0 0 1-.406 2.88 7.218 7.218 0 0 1-1.192 2.364 5.753 5.753 0 0 1-1.938 1.61c-.767.392-1.645.59-2.638.59-.745 0-1.365-.11-1.863-.33a3.236 3.236 0 0 1-1.203-.874 3.304 3.304 0 0 1-.657-1.238 5.053 5.053 0 0 1-.197-1.412c0-1.008.135-1.962.404-2.868.27-.905.668-1.7 1.194-2.388a5.787 5.787 0 0 1 1.938-1.63c.767-.4 1.646-.6 2.638-.6zm-.46 2.452c-.35 0-.663.17-.94.514-.28.342-.51.772-.69 1.29a9.537 9.537 0 0 0-.417 1.688c-.095.605-.142 1.17-.142 1.697 0 .437.076.756.23.95a.749.749 0 0 0 .624.297c.35 0 .66-.17.93-.514s.496-.772.68-1.292c.18-.516.32-1.076.415-1.674.095-.598.142-1.152.142-1.664 0-.452-.076-.78-.23-.985a.716.716 0 0 0-.602-.307zm7.883 8.757c-.774 0-1.372-.194-1.796-.58-.422-.386-.635-.9-.635-1.544a2.983 2.983 0 0 1 .089-.68l1.62-8.078h3.35l-1.424 7.246a5.7 5.7 0 0 1-.065.372.81.81 0 0 0-.023.198c0 .102.015.194.044.273.03.082.11.122.24.122.075 0 .166-.01.274-.034.11-.02.213-.047.308-.076.095-.03.182-.06.262-.087a.746.746 0 0 1 .142-.043v2.365c-.234.116-.48.21-.744.285-.218.072-.47.135-.756.186-.283.05-.58.075-.885.075zm1.598-16.005c.628 0 1.087.158 1.38.47.292.316.438.743.438 1.282 0 .526-.186.98-.56 1.368-.372.387-.87.58-1.5.58-.627 0-1.087-.16-1.38-.48-.29-.322-.436-.737-.436-1.25 0-.524.182-.985.547-1.378.365-.395.87-.592 1.51-.592zm7.445 15.415c-.265.1-.542.19-.834.262a6.762 6.762 0 0 1-1.839.263c-.818 0-1.427-.188-1.828-.57-.403-.377-.602-.89-.602-1.53 0-.103.007-.212.02-.33a3.08 3.08 0 0 1 .067-.35l2.475-12.743 3.414-.437-2.365 12.392c-.03.19-.052.312-.066.37a.82.82 0 0 0-.023.2c0 .1.02.193.056.272.036.08.127.12.273.12.086 0 .197-.01.327-.033.13-.022.264-.052.395-.088.13-.036.245-.068.34-.1a.892.892 0 0 1 .186-.043v2.343zm1.18-3.133c0-1.007.136-1.96.405-2.867.27-.905.668-1.7 1.194-2.388a5.784 5.784 0 0 1 1.937-1.63c.767-.402 1.645-.602 2.638-.602 1.226 0 2.11.247 2.65.744.538.495.81 1.146.81 1.947 0 .613-.15 1.183-.45 1.708-.3.526-.724.985-1.27 1.38-.548.395-1.2.716-1.95.964-.752.25-1.57.416-2.462.503 0 .058-.004.134-.01.23-.01.094-.012.177-.012.25 0 .365.104.63.31.79.202.16.458.24.764.24.205 0 .486-.043.843-.13.36-.088.72-.19 1.084-.308.424-.13.87-.285 1.337-.46l.744 2.235c-.494.25-1.005.46-1.53.634-.455.162-.954.305-1.5.428a7.351 7.351 0 0 1-1.61.186c-.743 0-1.364-.108-1.86-.328-.496-.218-.9-.51-1.204-.875a3.278 3.278 0 0 1-.657-1.237c-.134-.46-.2-.93-.2-1.412zm5.65-4.947c-.38 0-.73.215-1.05.645s-.57.99-.745 1.676c.788-.102 1.39-.332 1.807-.69.416-.358.624-.705.624-1.04 0-.393-.213-.59-.636-.59zm12.194 1.183a3.857 3.857 0 0 0-.526-.44c-.19-.13-.43-.197-.72-.197a.89.89 0 0 0-.582.23c-.182.153-.35.354-.503.602a4.717 4.717 0 0 0-.406.843 7.95 7.95 0 0 0-.285.95l-1.05 5.344h-3.395l1.118-5.606c.072-.364.127-.704.163-1.017.036-.315.055-.603.055-.865 0-.685-.09-1.234-.273-1.642a9.408 9.408 0 0 0-.404-.833l2.758-1.072c.205.234.357.507.46.822.102.313.153.645.153.996 0 .16-.01.357-.032.59-.023.234-.063.585-.122 1.05.364-1.24.81-2.12 1.336-2.637.525-.518 1.174-.778 1.948-.778.423 0 .812.063 1.17.186a2.2 2.2 0 0 1 .93.624l-1.794 2.848zm2.583 1.729c.074-.364.13-.704.165-1.017.036-.315.055-.603.055-.865 0-.685-.09-1.234-.273-1.642-.184-.407-.32-.686-.406-.832l2.76-1.072c.203.234.357.507.46.822.102.313.153.645.153.996 0 .16-.007.353-.022.58-.015.227-.06.557-.13.996l.284-.613c.467-1.02.997-1.733 1.587-2.135.59-.4 1.23-.6 1.916-.6.54 0 1.002.113 1.39.34.386.225.695.517.93.874.233.36.405.763.515 1.217.11.452.164.898.164 1.334 0 1.05-.135 2.025-.404 2.923-.272.898-.672 1.683-1.205 2.356a5.63 5.63 0 0 1-1.97 1.575c-.782.38-1.683.57-2.705.57a7.43 7.43 0 0 1-.535-.02 6.296 6.296 0 0 1-.493-.068l-.83 4.314-3.417.437 2.012-10.468zm2.737 3.196c.19.06.418.088.68.088.495 0 .913-.186 1.25-.558.333-.372.6-.82.798-1.346a7.922 7.922 0 0 0 .416-1.642c.08-.57.12-1.044.12-1.424 0-.307-.032-.57-.1-.79-.064-.218-.2-.328-.403-.328-.218 0-.45.154-.69.46-.24.307-.477.71-.71 1.204a13.736 13.736 0 0 0-.658 1.697 21.835 21.835 0 0 0-.526 1.918l-.176.723zm12.876 1.972c-.264.1-.54.19-.833.262a6.762 6.762 0 0 1-1.839.263c-.818 0-1.427-.188-1.828-.57-.402-.377-.602-.89-.602-1.53 0-.103.008-.212.02-.33a3.08 3.08 0 0 1 .067-.35l2.475-12.743 3.414-.437-2.365 12.392c-.03.19-.052.312-.066.37a.82.82 0 0 0-.023.2c0 .1.02.193.056.272.036.08.127.12.273.12.086 0 .196-.01.327-.033.13-.022.264-.052.395-.088.13-.036.245-.068.34-.1a.892.892 0 0 1 .186-.043v2.343zm4.18.634c-.553 0-1.02-.114-1.4-.34a2.775 2.775 0 0 1-.92-.875 3.885 3.885 0 0 1-.515-1.205 5.685 5.685 0 0 1-.163-1.346c0-1.05.135-2.024.404-2.922a6.96 6.96 0 0 1 1.205-2.353 5.604 5.604 0 0 1 1.97-1.577c.78-.38 1.683-.57 2.706-.57.48 0 .915.04 1.302.122.387.08.784.214 1.194.404l1.752.11-.92 4.773c-.073.35-.128.68-.164.994a7.28 7.28 0 0 0-.055.867c0 .613.072 1.135.218 1.566.146.43.364.873.657 1.325l-2.758 1.095a3.39 3.39 0 0 1-.56-.91 3.01 3.01 0 0 1-.23-1.193c0-.175.004-.372.01-.59.01-.22.026-.475.056-.767l-.284.613c-.467 1.008-.997 1.723-1.587 2.147-.59.423-1.23.634-1.916.634zm1.052-2.583c.218 0 .452-.16.7-.482.248-.32.486-.73.712-1.226.226-.495.435-1.04.625-1.63.19-.592.348-1.15.48-1.676l.22-.985c-.162-.06-.38-.087-.658-.087-.51 0-.93.186-1.258.558a4.326 4.326 0 0 0-.79 1.346 7.68 7.68 0 0 0-.416 1.644c-.08.57-.12 1.044-.12 1.42 0 .31.032.57.1.79.064.218.2.328.404.328zm7.795-8.342h2.145l.898-2.52 3.044-.68-.636 3.2h2.234l-.395 2.538h-2.32l-.92 4.64c-.03.075-.047.185-.055.33-.007.145-.01.255-.01.327 0 .146.042.256.13.33.087.072.256.108.505.108.13 0 .294-.017.49-.055.2-.036.392-.076.582-.12.217-.06.437-.123.656-.198v2.475c-.262.102-.562.19-.898.262-.292.073-.628.13-1.008.174-.38.043-.788.066-1.226.066-1.006 0-1.72-.178-2.145-.537-.424-.357-.637-.88-.637-1.564 0-.12.007-.253.023-.407.013-.154.036-.296.064-.427l1.095-5.407h-1.62v-2.538zm7.136 7.158c0-1.007.135-1.96.404-2.867.27-.905.668-1.7 1.194-2.388a5.804 5.804 0 0 1 1.94-1.63c.766-.402 1.644-.602 2.637-.602 1.226 0 2.11.247 2.65.744.54.495.81 1.146.81 1.947 0 .613-.15 1.183-.45 1.708-.3.526-.723.985-1.27 1.38-.547.395-1.198.716-1.95.964-.75.25-1.57.416-2.46.503 0 .058-.005.134-.012.23-.007.094-.01.177-.01.25 0 .365.102.63.307.79.203.16.46.24.765.24.205 0 .486-.043.842-.13.358-.088.72-.19 1.083-.308.423-.13.87-.285 1.336-.46l.743 2.235c-.495.25-1.006.46-1.532.634-.453.162-.952.305-1.498.428a7.351 7.351 0 0 1-1.61.186c-.743 0-1.363-.108-1.86-.328-.496-.218-.9-.51-1.204-.875a3.278 3.278 0 0 1-.657-1.237 5.09 5.09 0 0 1-.197-1.412zm5.65-4.947c-.38 0-.732.215-1.052.645-.32.43-.568.99-.743 1.676.788-.102 1.39-.332 1.807-.69.416-.358.625-.705.625-1.04-.002-.393-.215-.59-.638-.59z" class="swill-boilerplate-logo__text--boilerplate"/><path d="M84.606 169.06c1.955 0 3.593.22 4.912.657 1.317.44 2.395 1.03 3.234 1.767a8.452 8.452 0 0 1 1.976 2.517c.48.94.88 1.908 1.198 2.905l-7.546 3.475c-.44-1.277-.91-2.247-1.408-2.906-.5-.66-1.287-.99-2.365-.99-1.16 0-2.078.33-2.756.99-.68.658-1.018 1.448-1.018 2.367 0 1.16.26 2.038.78 2.635.518.6 1.198 1.198 2.036 1.797l5.27 3.893c1.56 1.16 2.787 2.538 3.685 4.134.898 1.597 1.348 3.514 1.348 5.75 0 2.116-.428 3.963-1.288 5.54a11.507 11.507 0 0 1-3.473 3.923c-1.46 1.04-3.127 1.818-5.002 2.336a22.008 22.008 0 0 1-5.87.777c-2.915 0-5.45-.328-7.607-.987-2.155-.66-4.072-1.448-5.75-2.367l4.193-7.427a42.677 42.677 0 0 0 4.434 2.306c1.477.66 2.995.987 4.55.987 1.64 0 2.947-.35 3.924-1.05.98-.697 1.47-1.785 1.47-3.263 0-1.158-.28-2.105-.84-2.845-.56-.738-1.297-1.446-2.216-2.126l-4.253-3.117a23.378 23.378 0 0 1-2.514-2.157 11.028 11.028 0 0 1-1.798-2.336 11.243 11.243 0 0 1-1.108-2.754c-.26-.998-.39-2.116-.39-3.356 0-1.756.36-3.323 1.08-4.7a9.971 9.971 0 0 1 2.994-3.474c1.277-.94 2.775-1.657 4.492-2.158 1.715-.496 3.594-.746 5.63-.746zm54.029 10.78c.598 1.278 1.027 2.527 1.287 3.744.26 1.22.39 2.287.39 3.206 0 1.795-.19 3.623-.568 5.48a29.88 29.88 0 0 1-1.647 5.39 26.81 26.81 0 0 1-2.636 4.883 19.768 19.768 0 0 1-3.533 3.953c-2.875 2.515-6.31 3.773-10.302 3.773-1.28 0-2.407-.18-3.384-.54-.978-.36-1.867-1.038-2.666-2.036a15.612 15.612 0 0 1-3.684 1.886c-1.298.46-2.725.69-4.282.69-2.636 0-4.743-.61-6.32-1.83-1.577-1.215-2.365-3.083-2.365-5.598 0-.24.02-.58.06-1.02.04-.438.09-.887.15-1.347.06-.46.12-.907.18-1.348.058-.44.11-.8.15-1.078l3.413-17.55h9.104l-3.414 17.79c-.08.32-.16.838-.24 1.557-.08.718-.12 1.238-.12 1.556 0 .64.14 1.16.42 1.558s.697.6 1.257.6c.96 0 1.828-.56 2.606-1.677.777-1.118 1.457-2.526 2.036-4.223.58-1.697 1.027-3.555 1.348-5.57.32-2.017.48-3.904.48-5.662 0-.598-.05-1.348-.15-2.245-.1-.9-.25-1.687-.45-2.367l8.026-1.976c.638 1.277 1.078 2.526 1.317 3.743.24 1.22.36 2.287.36 3.206 0 2.554-.36 5.13-1.077 7.726-.72 2.596-1.76 4.97-3.117 7.127.08.56.28 1.02.6 1.378.32.362.778.54 1.378.54.96 0 1.907-.558 2.846-1.676.938-1.118 1.786-2.526 2.545-4.223.76-1.696 1.38-3.554 1.86-5.57.477-2.016.717-3.903.717-5.66 0-.6-.05-1.35-.15-2.246-.1-.9-.248-1.687-.448-2.367l8.025-1.976zm10.961 30.43c-2.116 0-3.754-.53-4.912-1.588-1.158-1.06-1.737-2.466-1.737-4.223a8.096 8.096 0 0 1 .24-1.86l4.433-22.1h9.163l-3.893 19.825c-.08.52-.14.86-.18 1.02-.04.158-.06.34-.06.538 0 .28.04.53.12.748.08.22.3.33.66.33.2 0 .45-.03.75-.09.298-.06.577-.13.837-.21.26-.08.5-.16.72-.238.217-.08.348-.12.388-.12v6.47c-.64.32-1.317.578-2.037.777-.598.2-1.287.367-2.067.508-.777.14-1.586.21-2.424.21zm4.373-43.787c1.715 0 2.973.43 3.772 1.287.8.86 1.2 2.027 1.2 3.505 0 1.437-.512 2.686-1.53 3.743-1.018 1.06-2.387 1.587-4.102 1.587-1.718 0-2.976-.44-3.773-1.317-.8-.877-1.2-2.015-1.2-3.414 0-1.437.5-2.695 1.497-3.773 1-1.078 2.377-1.617 4.135-1.617zm20.365 42.167c-.72.28-1.48.52-2.278.72-.68.2-1.458.37-2.334.51-.88.14-1.778.21-2.697.21-2.236 0-3.902-.52-5-1.557-1.1-1.038-1.648-2.435-1.648-4.193 0-.28.02-.58.06-.9.04-.32.1-.638.18-.96l6.77-34.86 9.343-1.198-6.468 33.903c-.08.52-.14.86-.18 1.02-.04.158-.06.34-.06.538 0 .28.05.53.15.748.1.22.348.33.75.33.238 0 .538-.03.897-.09.36-.06.718-.138 1.077-.24.36-.098.668-.19.928-.27.26-.08.43-.12.51-.12v6.41zm18.089 0c-.72.28-1.48.52-2.278.72-.68.2-1.458.37-2.334.51a17.1 17.1 0 0 1-2.696.21c-2.236 0-3.902-.52-5-1.557-1.1-1.038-1.648-2.435-1.648-4.193 0-.28.02-.58.06-.9.04-.32.1-.638.18-.96l6.77-34.86 9.343-1.198-6.47 33.903c-.08.52-.14.86-.18 1.02-.04.158-.06.34-.06.538 0 .28.05.53.15.748.1.22.35.33.75.33.24 0 .54-.03.898-.09.36-.06.72-.138 1.078-.24.36-.098.668-.19.928-.27.26-.08.43-.12.51-.12v6.41z" class="swill-boilerplate-logo__text--swill-shadow"/><path d="M79.637 164.49c1.955 0 3.593.22 4.912.66 1.316.44 2.394 1.028 3.233 1.766a8.452 8.452 0 0 1 1.976 2.517c.48.938.878 1.907 1.197 2.904l-7.546 3.475c-.44-1.277-.908-2.247-1.407-2.906-.5-.66-1.287-.99-2.365-.99-1.16 0-2.078.33-2.756.99-.68.658-1.02 1.448-1.02 2.367 0 1.158.26 2.037.78 2.634.52.6 1.2 1.198 2.037 1.797l5.27 3.893c1.558 1.16 2.786 2.538 3.684 4.134.898 1.6 1.348 3.516 1.348 5.752 0 2.116-.43 3.963-1.29 5.54a11.494 11.494 0 0 1-3.472 3.923c-1.458 1.04-3.126 1.818-5 2.336-1.878.52-3.835.78-5.87.78-2.916 0-5.452-.33-7.608-.988-2.156-.66-4.073-1.448-5.75-2.367l4.192-7.427a42.677 42.677 0 0 0 4.434 2.306c1.477.66 2.995.987 4.55.987 1.64 0 2.947-.348 3.924-1.047.98-.698 1.47-1.786 1.47-3.264 0-1.16-.282-2.106-.84-2.846-.56-.738-1.298-1.446-2.217-2.126l-4.253-3.117a22.975 22.975 0 0 1-2.515-2.155 11.028 11.028 0 0 1-1.798-2.336c-.48-.838-.85-1.757-1.11-2.755-.26-.998-.388-2.116-.388-3.356 0-1.757.36-3.324 1.078-4.702a10.01 10.01 0 0 1 2.995-3.473c1.277-.94 2.775-1.657 4.492-2.158 1.715-.496 3.594-.746 5.63-.746zm54.029 10.783c.598 1.277 1.027 2.526 1.287 3.743.26 1.22.39 2.287.39 3.206 0 1.795-.19 3.623-.568 5.48a29.88 29.88 0 0 1-1.647 5.39 26.81 26.81 0 0 1-2.636 4.883 19.803 19.803 0 0 1-3.534 3.953c-2.875 2.515-6.31 3.773-10.302 3.773-1.28 0-2.407-.18-3.384-.538-.98-.36-1.868-1.038-2.667-2.036a15.612 15.612 0 0 1-3.684 1.886c-1.297.46-2.724.69-4.28.69-2.637 0-4.744-.61-6.32-1.83-1.578-1.215-2.366-3.083-2.366-5.598 0-.24.02-.58.06-1.02.04-.438.09-.887.15-1.347.06-.46.12-.907.18-1.348.058-.44.11-.8.15-1.08l3.413-17.55h9.104l-3.413 17.79c-.08.322-.16.84-.24 1.56-.08.717-.12 1.237-.12 1.555 0 .64.14 1.16.42 1.558.278.4.697.598 1.257.598.96 0 1.828-.557 2.606-1.675.778-1.118 1.458-2.526 2.037-4.223.58-1.697 1.027-3.555 1.348-5.57.32-2.017.48-3.904.48-5.662 0-.598-.05-1.348-.15-2.245-.1-.9-.25-1.687-.45-2.367l8.026-1.976c.64 1.277 1.08 2.526 1.318 3.743.24 1.22.36 2.287.36 3.206 0 2.556-.36 5.13-1.077 7.728-.718 2.596-1.76 4.97-3.116 7.127.08.56.28 1.02.6 1.378.32.36.778.54 1.378.54.96 0 1.906-.56 2.845-1.677.938-1.118 1.786-2.526 2.545-4.223.76-1.697 1.378-3.555 1.858-5.57.478-2.017.718-3.904.718-5.662 0-.597-.05-1.347-.15-2.244-.1-.9-.248-1.687-.448-2.367l8.026-1.977zm10.961 30.427c-2.116 0-3.754-.528-4.912-1.586-1.158-1.06-1.737-2.466-1.737-4.223 0-.278.02-.578.06-.9.04-.318.1-.637.18-.957l4.433-22.102h9.164l-3.893 19.827c-.078.52-.14.86-.18 1.02-.04.158-.058.34-.058.538 0 .28.038.53.12.748.08.22.3.33.658.33.2 0 .45-.03.75-.09.298-.06.577-.13.837-.21.26-.08.5-.16.72-.24.217-.08.348-.12.388-.12v6.47c-.64.32-1.317.58-2.037.778-.598.202-1.287.37-2.067.51-.776.14-1.585.21-2.423.21zM149 161.916c1.716 0 2.974.43 3.773 1.287.8.86 1.2 2.027 1.2 3.505 0 1.437-.512 2.686-1.53 3.743-1.018 1.06-2.387 1.587-4.102 1.587-1.717 0-2.975-.44-3.772-1.317-.8-.877-1.2-2.015-1.2-3.414 0-1.437.5-2.695 1.497-3.773 1-1.08 2.377-1.618 4.135-1.618zm20.365 42.167c-.72.28-1.48.518-2.278.72-.68.2-1.458.368-2.334.51-.88.138-1.778.208-2.697.208-2.236 0-3.902-.517-5-1.555-1.1-1.038-1.648-2.435-1.648-4.193 0-.28.02-.58.06-.9.04-.32.1-.638.18-.96l6.77-34.86 9.343-1.198-6.467 33.903c-.08.52-.14.86-.18 1.02-.04.158-.06.34-.06.538 0 .28.05.53.15.748.1.22.348.33.75.33.238 0 .538-.03.897-.09.36-.06.72-.14 1.078-.24.36-.1.668-.19.928-.27.26-.08.43-.12.51-.12v6.41zm18.089 0c-.72.28-1.48.518-2.278.72-.68.2-1.458.368-2.334.51-.88.138-1.778.208-2.697.208-2.236 0-3.902-.517-5-1.555-1.1-1.038-1.648-2.435-1.648-4.193 0-.28.02-.58.06-.9.04-.32.1-.638.18-.96l6.77-34.86 9.343-1.198-6.468 33.903c-.08.52-.14.86-.18 1.02-.04.158-.06.34-.06.538 0 .28.05.53.15.748.1.22.348.33.75.33.238 0 .538-.03.897-.09.36-.06.72-.14 1.077-.24.36-.1.668-.19.928-.27.26-.08.43-.12.51-.12v6.41z" class="swill-boilerplate-logo__text--swill"/></g></svg>