<?xml version="1.0" encoding="utf-8"?>
<!-- Generator: Adobe Illustrator 28.2.0, SVG Export Plug-In . SVG Version: 6.00 Build 0)  -->
<svg version="1.1" id="Layer_1" xmlns="http://www.w3.org/2000/svg" xmlns:xlink="http://www.w3.org/1999/xlink" x="0px" y="0px"
	 viewBox="0 0 600 600" style="enable-background:new 0 0 600 600;" xml:space="preserve">
<style type="text/css">
	.st0{fill:#FFB13B;}
	.st1{opacity:0.8;}
	.st2{fill:#FFFFFF;}
	.st3{fill-rule:evenodd;clip-rule:evenodd;fill:#166DA5;}
	.st4{fill-rule:evenodd;clip-rule:evenodd;fill:#8FDB69;}
	.st5{opacity:0.95;fill-rule:evenodd;clip-rule:evenodd;fill:url(#SVGID_1_);enable-background:new    ;}
	
		.st6{opacity:0.95;fill-rule:evenodd;clip-rule:evenodd;fill:url(#SVGID_00000093169329539276170030000001262022333223930784_);enable-background:new    ;}
	.st7{fill-rule:evenodd;clip-rule:evenodd;fill:#010101;}
</style>
<g>
	<path id="base" d="M206.8,398.3h390.3v137.9c0,32.4-24.8,57.2-57.2,57.2H264c-32.4,0-57.2-24.8-57.2-57.2V398.3z"/>
	<path d="M580.2,438.7c10.8-10.8,16.7-25.1,16.7-40.4s-5.9-29.6-16.7-40.4c-10.8-10.8-25.1-16.7-40.4-16.7c0,0,0,0-0.1,0
		c10.4-10.3,16.8-24.6,16.8-40.4c0-15.3-5.9-29.6-16.7-40.4c-10.8-10.8-25.1-16.7-40.4-16.7c-15.8,0-30,6.4-40.4,16.8c0,0,0,0,0-0.1
		c0-15.3-5.9-29.6-16.7-40.4c-10.8-10.8-25.1-16.7-40.4-16.7c-15.3,0-29.6,5.9-40.4,16.7c-10.8,10.8-16.7,25.1-16.7,40.4
		c-10.8-10.8-25.1-16.7-40.4-16.7c-31.5,0-57.1,25.6-57.1,57.1c0,15.8,6.4,30,16.8,40.4c0,0,0,0-0.1,0c-15.3,0-29.6,5.9-40.4,16.7
		c-10.8,10.8-16.7,25.1-16.7,40.4s5.9,29.6,16.7,40.4c10.8,10.8,25.1,16.7,40.4,16.7c0,0,0,0,0.1,0c-10.4,10.3-16.8,24.6-16.8,40.4
		c0,31.5,25.6,57.1,57.1,57.1c15.8,0,30-6.4,40.4-16.8c0,0,0,0,0,0.1c0,15.3,5.9,29.6,16.7,40.4c10.8,10.8,25.1,16.7,40.4,16.7
		c15.3,0,29.6-5.9,40.4-16.7c10.8-10.8,16.7-25.1,16.7-40.4c0,0,0,0,0-0.1c10.3,10.4,24.6,16.8,40.4,16.8
		c31.5,0,57.1-25.6,57.1-57.1c0-15.8-6.4-30-16.8-40.4c0,0,0,0,0.1,0C555.1,455.4,569.5,449.5,580.2,438.7z"/>
	<path class="st0" d="M561.7,376.4c-12.1-12.1-31.6-12.1-43.7,0h-63.3l44.7-44.7c17.1,0,30.9-13.8,30.9-30.9
		c0-17.1-13.8-30.9-30.9-30.9c-17.1,0-30.9,13.8-30.9,30.9l-44.7,44.7v-63.3c12.1-12.1,12.1-31.6,0-43.7
		c-12.1-12.1-31.6-12.1-43.7,0c-12.1,12.1-12.1,31.6,0,43.7v63.3l-44.7-44.7c0-17.1-13.8-30.9-30.9-30.9
		c-17.1,0-30.9,13.8-30.9,30.9c0,17.1,13.8,30.9,30.9,30.9l44.7,44.7h-63.3c-12.1-12.1-31.6-12.1-43.7,0
		c-12.1,12.1-12.1,31.6,0,43.7c12.1,12.1,31.6,12.1,43.7,0h63.3l-44.7,44.7c-17.1,0-30.9,13.8-30.9,30.9c0,17.1,13.8,30.9,30.9,30.9
		c17.1,0,30.9-13.8,30.9-30.9l44.7-44.7v63.3c-12.1,12.1-12.1,31.6,0,43.7c12.1,12.1,31.6,12.1,43.7,0c12.1-12.1,12.1-31.6,0-43.7
		v-63.3l44.7,44.7c0,17.1,13.8,30.9,30.9,30.9c17.1,0,30.9-13.8,30.9-30.9c0-17.1-13.8-30.9-30.9-30.9l-44.7-44.7H518
		c12.1,12.1,31.6,12.1,43.7,0C573.8,408.1,573.8,388.5,561.7,376.4z"/>
	<g class="st1">
		<path id="base_00000105387705105077041280000009385277330420549264_" d="M206.8,398.3h390.3v137.9c0,32.4-24.8,57.2-57.2,57.2H264
			c-32.4,0-57.2-24.8-57.2-57.2V398.3z"/>
	</g>
	<g>
		<g id="SVG" transform="scale(2) translate(20,79)">
			<path id="S" class="st2" d="M112.7,168.9c-4.6-4.6-7.4-10.9-7.4-17.9c0-14,11.3-25.3,25.3-25.3c14,0,25.3,11.3,25.3,25.3H141
				c0-5.8-4.7-10.5-10.5-10.5c-5.8,0-10.5,4.7-10.5,10.5c0,2.9,1.2,5.5,3.1,7.4h0c1.9,1.9,3.5,2.5,7.4,3.1l0,0
				c7,0.7,13.3,2.8,17.9,7.4l0,0c4.6,4.6,7.4,10.9,7.4,17.9c0,14-11.3,25.3-25.3,25.3c-14,0-25.3-11.3-25.3-25.3h14.8
				c0,5.8,4.7,10.5,10.5,10.5c5.8,0,10.5-4.7,10.5-10.5c0-2.9-1.2-5.5-3.1-7.4h0c-1.9-1.9-4.6-2.6-7.4-3.1v0
				C123.8,175.2,117.2,173.4,112.7,168.9L112.7,168.9L112.7,168.9z"/>
			<path id="V" class="st2" d="M206.4,125.7L188.5,212h-14.8l-17.9-86.3h14.8l10.5,50.6l10.5-50.6H206.4z"/>
			<path id="G" class="st2" d="M231.7,161.5H257v25.3h0c0,14-11.3,25.3-25.3,25.3c-14,0-25.3-11.3-25.3-25.3l0,0V151h0
				c0-14,11.3-25.3,25.3-25.3c14,0,25.3,11.3,25.3,25.3h-14.8c0-5.8-4.7-10.5-10.5-10.5c-5.8,0-10.5,4.7-10.5,10.5v35.8l0,0
				c0,5.8,4.7,10.5,10.5,10.5c5.8,0,10.5-4.7,10.5-10.5v0v-10.5h-10.5V161.5L231.7,161.5z"/>
		</g>
	</g>
</g>
<g>
	<path class="st3" d="M526.3,220.2l-57.2,96.3L389,218.9l80.2-94.9L526.3,220.2z"/>
	<path class="st4" d="M462.9,332.9l-87.1-104.1l-52.2,87.4l81.1,118.6L462.9,332.9z"/>
	<path class="st3" d="M461.9,106.9l-86.1,104.5L323.6,124L404.7,6.7L461.9,106.9z"/>
	
		<linearGradient id="SVGID_1_" gradientUnits="userSpaceOnUse" x1="-24.8998" y1="686.3168" x2="-21.6147" y2="686.3168" gradientTransform="matrix(97.9 0 0 -62.6 2637.0911 43072.2969)">
		<stop  offset="0" style="stop-color:#2A3B8F"/>
		<stop  offset="1" style="stop-color:#29ABE2"/>
	</linearGradient>
	<path class="st5" d="M199.4,106.9h262.5L404.1,6H257.2L199.4,106.9z M375.8,211.7H521l-52.2-88H323.3"/>
	
		<linearGradient id="SVGID_00000155834132330974772710000010174907811959696312_" gradientUnits="userSpaceOnUse" x1="-21.6187" y1="683.8297" x2="-24.9038" y2="683.8297" gradientTransform="matrix(98 0 0 -62.4 2639.6494 43001.9062)">
		<stop  offset="0" style="stop-color:#B4D44E"/>
		<stop  offset="1" style="stop-color:#E7F716"/>
	</linearGradient>
	
		<path style="opacity:0.95;fill-rule:evenodd;clip-rule:evenodd;fill:url(#SVGID_00000155834132330974772710000010174907811959696312_);enable-background:new    ;" d="
		M462.9,333.2H199.1l57.8,100.2h147.8L462.9,333.2z M375.8,228.4H521l-52.2,88H323.3"/>
	<path class="st7" d="M256.9,433.4L133.4,219.9L258.5,6.4H123.2L0,219.9l123.2,213.5H256.9z"/>
</g>
</svg>
